
<svg xmlns="http://www.w3.org/2000/svg" viewBox="0 0 100 85" width="100%" height="100%">
  <!-- Ears -->
  <ellipse cx="24" cy="22" rx="14" ry="16" fill="#ffffff" stroke="#333333" stroke-width="3" transform="rotate(-25 24 22)"/>
  <ellipse cx="76" cy="22" rx="14" ry="16" fill="#ffffff" stroke="#333333" stroke-width="3" transform="rotate(25 76 22)"/>
  <!-- Head -->
  <ellipse cx="50" cy="46" rx="42" ry="34" fill="#ffffff" stroke="#333333" stroke-width="3.5"/>
  <!-- Red Bow -->
  <g transform="translate(14, 2) scale(0.42)">
    <ellipse cx="28" cy="35" rx="24" ry="20" fill="#f43f5e" stroke="#881337" stroke-width="4" transform="rotate(-15 28 35)"/>
    <ellipse cx="72" cy="35" rx="24" ry="20" fill="#f43f5e" stroke="#881337" stroke-width="4" transform="rotate(15 72 35)"/>
    <circle cx="50" cy="35" r="14" fill="#e11d48" stroke="#881337" stroke-width="4"/>
  </g>
  <!-- Eyes -->
  <ellipse cx="34" cy="48" rx="4.5" ry="6.5" fill="#222222"/>
  <ellipse cx="66" cy="48" rx="4.5" ry="6.5" fill="#222222"/>
  <!-- Nose -->
  <ellipse cx="50" cy="55" rx="5.5" ry="4" fill="#fbbf24" stroke="#d97706" stroke-width="1.5"/>
  <!-- Whiskers -->
  <line x1="16" y1="46" x2="2" y2="44" stroke="#333333" stroke-width="2.5" stroke-linecap="round"/>
  <line x1="16" y1="52" x2="2" y2="54" stroke="#333333" stroke-width="2.5" stroke-linecap="round"/>
  <line x1="84" y1="46" x2="98" y2="44" stroke="#333333" stroke-width="2.5" stroke-linecap="round"/>
  <line x1="84" y1="52" x2="98" y2="54" stroke="#333333" stroke-width="2.5" stroke-linecap="round"/>
</svg>
